<svg xmlns="http://www.w3.org/2000/svg" xmlns:xlink="http://www.w3.org/1999/xlink" width="500" zoomAndPan="magnify" viewBox="0 0 375 374.999991" height="500" preserveAspectRatio="xMidYMid meet" version="1.0">
  <defs>
    <clipPath id="7cd1bb8e42">
      <path d="M 94.398438 231.355469 L 264.648438 231.355469 L 264.648438 375 L 94.398438 375 Z M 94.398438 231.355469 " clip-rule="nonzero"/>
    </clipPath>
    <clipPath id="7f8e552b12">
      <path d="M 88.425781 86.28125 L 287 86.28125 L 287 288.78125 L 88.425781 288.78125 Z M 88.425781 86.28125 " clip-rule="nonzero"/>
    </clipPath>
  </defs>
  <path fill="#d8a113" d="M 138.871094 245.875 L 234.660156 245.875 L 231.5 231.949219 L 278.304688 193.730469 L 265.347656 186.6875 L 274.496094 155.996094 L 245.429688 160.855469 L 241.703125 147.902344 L 215.875 172.191406 L 222.917969 121.179688 L 205.589844 127.65625 L 188.183594 96.160156 L 170.449219 127.65625 L 151.824219 120.773438 L 159.519531 172.191406 L 133.6875 147.902344 L 129.882812 160.855469 L 100.8125 155.996094 L 109.960938 186.6875 L 97.089844 193.730469 L 143.890625 231.949219 L 140.652344 245.875 L 236.523438 245.875 " fill-opacity="1" fill-rule="nonzero"/>
  <g clip-path="url(#7f8e552b12)">
    <path fill="#1f2916" d="M 236.847656 233.730469 L 286.886719 192.839844 L 271.097656 184.257812 L 281.300781 149.925781 L 248.828125 155.351562 L 244.050781 138.992188 L 222.433594 159.316406 L 228.75 113.8125 L 207.695312 121.664062 L 188.183594 86.28125 L 168.261719 121.664062 L 145.914062 113.488281 L 152.714844 159.238281 L 131.257812 139.074219 L 126.480469 155.429688 L 94.09375 150.007812 L 104.292969 184.339844 L 88.503906 192.921875 L 138.546875 233.8125 L 134.660156 250.734375 L 182.917969 250.734375 L 182.917969 288.710938 L 192.472656 288.710938 L 192.472656 250.734375 L 240.730469 250.734375 Z M 192.472656 241.097656 L 192.472656 230.652344 L 192.878906 231.058594 L 235.632812 193.40625 L 229.316406 186.199219 L 192.554688 218.589844 L 192.554688 159.316406 L 183 159.316406 L 183 216.96875 L 148.261719 186.363281 L 141.945312 193.570312 L 183.082031 229.761719 L 183.082031 241.179688 L 146.722656 241.179688 L 149.234375 230.167969 L 105.671875 194.621094 L 115.710938 189.195312 L 107.613281 162.152344 L 133.28125 166.445312 L 136.035156 156.96875 L 166.238281 185.308594 L 157.816406 128.0625 L 172.636719 133.570312 L 188.183594 106.039062 L 203.40625 133.648438 L 217.089844 128.546875 L 209.316406 185.066406 L 239.355469 156.890625 L 242.109375 166.363281 L 267.777344 162.070312 L 259.679688 189.117188 L 269.71875 194.539062 L 226.15625 230.085938 L 228.667969 241.097656 Z M 192.472656 241.097656 " fill-opacity="1" fill-rule="nonzero"/>
  </g>
</svg>
